<svg width="40" height="40" viewBox="0 0 40 40" fill="none" xmlns="http://www.w3.org/2000/svg">
<path d="M35.5511 15.2247C33.4582 15.2247 31.7098 16.6512 31.2371 18.5606H25.5835C25.4356 17.7861 25.126 17.0678 24.6867 16.4417L28.6847 12.5273C29.376 12.9424 30.1657 13.1757 30.9975 13.1757C32.1864 13.1757 33.3038 12.722 34.1445 11.8982C34.9852 11.0752 35.4485 9.98104 35.4485 8.81702C35.4485 7.65372 34.9852 6.55966 34.1445 5.73581C32.4086 4.03616 29.585 4.03616 27.8498 5.73581C27.0091 6.55961 26.5458 7.65374 26.5458 8.81702C26.5458 9.63083 26.7847 10.4047 27.208 11.0808L23.21 14.9951C22.5704 14.5651 21.8361 14.2619 21.0458 14.1171V8.58174C22.9952 8.11884 24.4522 6.40636 24.4522 4.35715C24.4515 1.95572 22.4555 0 20.0013 0C17.5471 0 15.5504 1.95499 15.5504 4.35788C15.5504 6.40782 17.0073 8.1196 18.9575 8.58247V14.1179C18.1664 14.2627 17.4328 14.5658 16.7933 14.9959L12.7948 11.0815C13.2181 10.4046 13.457 9.63148 13.457 8.81775C13.457 7.65445 12.9937 6.56039 12.153 5.73654C10.4171 4.03689 7.59357 4.03689 5.85829 5.73654C5.01763 6.56034 4.55432 7.65447 4.55432 8.81775C4.55432 9.98177 5.01763 11.0766 5.85829 11.899C6.69894 12.7228 7.81642 13.1764 9.00529 13.1764C9.83647 13.1764 10.6269 12.9424 11.3181 12.528L15.3161 16.4424C14.8768 17.0686 14.5672 17.7876 14.4193 18.5614H8.76572C8.29294 16.652 6.54464 15.2254 4.45093 15.2254C1.99674 15.2254 0 17.1804 0 19.5841C0 21.9862 1.99674 23.9419 4.45093 23.9419C6.5439 23.9419 8.29223 22.5154 8.76572 20.6067H14.4193C14.5672 21.3813 14.8768 22.0996 15.3161 22.7257L11.3181 26.6393C9.60476 25.6165 7.33845 25.8184 5.85829 27.2677C5.01763 28.0915 4.55432 29.1856 4.55432 30.3489C4.55432 31.5129 5.01763 32.6077 5.85829 33.4301C6.72589 34.2796 7.86603 34.704 9.00529 34.704C10.1454 34.704 11.2847 34.2796 12.1523 33.4301C12.9929 32.607 13.4563 31.5129 13.4563 30.3489C13.4563 29.5358 13.2173 28.7619 12.7941 28.0852L16.792 24.1715C17.4316 24.6016 18.1659 24.9047 18.9562 25.0495V30.5849C17.0069 31.0478 15.5491 32.7596 15.5491 34.8088C15.5491 37.2109 17.5458 39.1667 20 39.1667C22.4542 39.1667 24.4509 37.2117 24.4509 34.8088C24.4509 32.7603 22.994 31.0478 21.0445 30.5849V25.0495C21.8356 24.9047 22.5692 24.6016 23.2087 24.1715L27.2067 28.0852C26.7834 28.762 26.5445 29.5359 26.5445 30.3489C26.5445 31.5129 27.0078 32.6077 27.8485 33.4301C28.7161 34.2796 29.8562 34.704 30.9955 34.704C32.1355 34.704 33.2749 34.2796 34.1425 33.4301C34.9831 32.607 35.4464 31.5129 35.4464 30.3489C35.4464 29.1856 34.9831 28.0916 34.1425 27.2677C32.6622 25.8184 30.3952 25.6165 28.6826 26.6393L24.6847 22.7257C25.1239 22.0995 25.4335 21.3805 25.5814 20.6067H31.235C31.7078 22.5154 33.4561 23.9419 35.5491 23.9419C38.0033 23.9419 40 21.9869 40 19.5841C40.0022 17.1797 38.0055 15.2247 35.5513 15.2247H35.5511ZM20.0011 23.1026C18.0197 23.1026 16.4069 21.5242 16.4069 19.5835C16.4069 17.6435 18.019 16.0644 20.0011 16.0644C21.9826 16.0644 23.5953 17.6428 23.5953 19.5835C23.5953 21.5235 21.9825 23.1026 20.0011 23.1026ZM29.3263 7.18162C29.7867 6.73157 30.3921 6.50547 30.9967 6.50547C31.6013 6.50547 32.2067 6.73086 32.6671 7.18162C33.1136 7.61883 33.3591 8.20012 33.3591 8.81708C33.3591 9.43546 33.1136 10.016 32.6671 10.4525C31.7747 11.327 30.2187 11.327 29.3263 10.4525C28.8798 10.016 28.6343 9.43474 28.6343 8.81708C28.6343 8.20012 28.8798 7.61883 29.3263 7.18162ZM17.6387 4.35786C17.6387 3.08258 18.6979 2.04554 20.0011 2.04554C21.3036 2.04554 22.3628 3.08331 22.3628 4.35786C22.3628 5.63386 21.3029 6.67164 20.0011 6.67164C18.6979 6.67164 17.6387 5.63387 17.6387 4.35786ZM7.33517 10.4533C6.88862 10.0168 6.64313 9.43548 6.64313 8.81781C6.64313 8.20086 6.88862 7.61956 7.33517 7.18235C7.79557 6.7323 8.40092 6.5062 9.00555 6.5062C9.61018 6.5062 10.2155 6.73159 10.6759 7.18235C11.1225 7.61956 11.368 8.20086 11.368 8.81781C11.368 9.43619 11.1225 10.0168 10.6759 10.4533C9.78354 11.3277 8.22752 11.3277 7.33517 10.4533ZM4.45037 21.8966C3.14786 21.8966 2.08868 20.8588 2.08868 19.5842C2.08868 18.3082 3.14861 17.2705 4.45037 17.2705C5.75361 17.2705 6.81281 18.3082 6.81281 19.5842C6.81354 20.8588 5.75361 21.8966 4.45037 21.8966ZM10.6759 31.9847C9.75514 32.8855 8.25586 32.8855 7.33517 31.9847C6.88862 31.5482 6.64313 30.9669 6.64313 30.3492C6.64313 29.7323 6.88862 29.151 7.33517 28.7137C8.25596 27.8129 9.75523 27.8129 10.6759 28.7137C11.1225 29.151 11.368 29.7323 11.368 30.3492C11.368 30.9669 11.1218 31.5482 10.6759 31.9847ZM22.3628 34.8084C22.3628 36.0837 21.3029 37.1207 20.0011 37.1207C18.6979 37.1207 17.6387 36.083 17.6387 34.8084C17.6387 33.5331 18.6986 32.4961 20.0011 32.4961C21.3036 32.4961 22.3628 33.5332 22.3628 34.8084ZM30.9967 28.0376C31.6013 28.0376 32.2067 28.263 32.6671 28.7138C33.1136 29.151 33.3591 29.7323 33.3591 30.3492C33.3591 30.9676 33.1136 31.5482 32.6671 31.9847C31.7463 32.8855 30.247 32.8855 29.3263 31.9847C28.8798 31.5482 28.6343 30.9669 28.6343 30.3492C28.6343 29.7323 28.8798 29.151 29.3263 28.7138C29.7867 28.263 30.3921 28.0376 30.9967 28.0376ZM35.5511 21.8966C34.2486 21.8966 33.1894 20.8588 33.1894 19.5842C33.1894 18.3082 34.2493 17.2705 35.5511 17.2705C36.8544 17.2705 37.9136 18.3082 37.9136 19.5842C37.9136 20.8588 36.8536 21.8966 35.5511 21.8966Z" fill="white"/>
</svg>
