<svg width="41" height="47" viewBox="0 0 41 47" fill="none" xmlns="http://www.w3.org/2000/svg">
<path d="M14.5641 33.8485C18.8964 33.8485 22.4213 30.3236 22.4213 25.9914C22.4213 21.6591 18.8964 18.1342 14.5641 18.1342C10.2313 18.1342 6.70703 21.6591 6.70703 25.9914C6.70703 30.3236 10.2313 33.8485 14.5641 33.8485ZM14.5641 19.5628C18.1091 19.5628 20.9927 22.447 20.9927 25.9914C20.9927 29.5357 18.1091 32.4199 14.5641 32.4199C11.0192 32.4199 8.1356 29.5357 8.1356 25.9914C8.1356 22.447 11.0192 19.5628 14.5641 19.5628Z" fill="white"/>
<path d="M33.6479 32.4166C33.7158 32.4188 33.7838 32.4195 33.8514 32.4195C35.7235 32.4195 37.485 31.7058 38.8306 30.3966C40.2251 29.0404 40.9929 27.2218 40.9929 25.2767C40.9929 23.0187 39.9323 20.9115 38.1358 19.563V5.27657C38.1358 2.91307 36.2136 0.990875 33.8501 0.990875C31.4866 0.990875 29.5644 2.91307 29.5644 5.27657V19.563C27.7522 20.9224 26.6907 23.0493 26.7072 25.3287C26.7343 29.1316 29.8472 32.3117 33.6479 32.4166L33.6479 32.4166ZM30.6767 20.5261C30.8744 20.3931 30.993 20.1702 30.993 19.9323V5.27685C30.993 3.70127 32.2745 2.41972 33.8501 2.41972C35.4257 2.41972 36.7073 3.70127 36.7073 5.27685V19.9323C36.7073 20.1708 36.8259 20.3931 37.0236 20.5257C38.6151 21.5911 39.5644 23.3666 39.5644 25.2766C39.5644 26.833 38.9502 28.2875 37.8335 29.373C36.7178 30.4581 35.2621 31.0238 33.6865 30.9887C30.6474 30.9045 28.1572 28.3609 28.1359 25.3188C28.1215 23.3918 29.0714 21.5994 30.6767 20.5261V20.5261Z" fill="white"/>
<path d="M33.8503 28.1342C35.4259 28.1342 36.7074 26.8527 36.7074 25.2771C36.7074 23.9499 35.7932 22.8405 34.5646 22.5213V4.56302C34.5646 4.16889 34.2454 3.84873 33.8503 3.84873C33.4552 3.84873 33.136 4.16889 33.136 4.56302V22.5213C31.9067 22.8405 30.9932 23.9499 30.9932 25.2771C30.9932 26.8527 32.2747 28.1342 33.8503 28.1342ZM33.8503 23.8485C34.6373 23.8485 35.2789 24.4891 35.2789 25.2771C35.2789 26.065 34.6373 26.7056 33.8503 26.7056C33.0624 26.7056 32.4217 26.065 32.4217 25.2771C32.4217 24.4891 33.0624 23.8485 33.8503 23.8485Z" fill="white"/>
<path d="M33.8501 43.1341C34.2452 43.1341 34.5644 42.814 34.5644 42.4199V35.277C34.5644 34.8829 34.2452 34.5627 33.8501 34.5627C33.455 34.5627 33.1358 34.8829 33.1358 35.277V41.7056H29.5644C29.1693 41.7056 28.8501 42.0257 28.8501 42.4199C28.8501 42.814 29.1693 43.1341 29.5644 43.1341H33.8501Z" fill="white"/>
<path d="M1.70741 46.7056H27.4216C27.6617 46.7056 27.8853 46.5847 28.0179 46.3842C28.1499 46.1842 28.1729 45.9307 28.0779 45.7098L24.5345 37.4412C23.9711 36.1262 22.6816 35.277 21.2517 35.277H7.87703C6.4456 35.277 5.15703 36.1261 4.59418 37.4412L1.05052 45.7098C0.955806 45.9307 0.97845 46.1842 1.11078 46.3842C1.24344 46.5847 1.46697 46.7056 1.70708 46.7056H1.70741ZM5.90731 38.0044C6.24532 37.2152 7.01792 36.706 7.87735 36.706H21.252C22.1098 36.706 22.8833 37.2158 23.222 38.0044L26.3378 45.2774H2.79091L5.90731 38.0044Z" fill="white"/>
</svg>
