<svg width="40" height="40" viewBox="0 0 40 40" fill="none" xmlns="http://www.w3.org/2000/svg">
<path d="M7.27246 10.909H25.4543V13.3333H7.27246V10.909Z" fill="white"/>
<path d="M7.27246 13.9393H25.4543V15.7575H7.27246V13.9393Z" fill="white"/>
<path d="M7.27246 16.9696H22.424V18.1818H7.27246V16.9696Z" fill="white"/>
<path d="M13.3335 8.48479H25.4547V10.303H13.3335V8.48479Z" fill="white"/>
<path d="M5.72672 38.9373C5.82927 39.212 6.09097 39.3942 6.38299 39.3939H39.2996C39.3834 39.3923 39.4663 39.3757 39.5441 39.3446C39.5595 39.3383 39.5751 39.3339 39.5898 39.327H39.5895C39.6605 39.2946 39.7252 39.2507 39.7814 39.197C39.7927 39.1863 39.8011 39.1744 39.8108 39.164C39.834 39.142 39.8555 39.1185 39.8752 39.0937C39.8968 39.0597 39.9156 39.0242 39.9312 38.9872C39.9362 38.9765 39.9425 38.9674 39.9465 38.957H39.9468C39.9772 38.8807 39.9934 38.7994 39.995 38.7171C39.995 38.7086 40 38.7008 40 38.6926V11.2553C40 10.5091 39.7048 9.79338 39.1796 9.2655C38.654 8.73791 37.9414 8.44145 37.1986 8.44145H34.3972C33.6543 8.44145 32.9417 8.73791 32.4162 9.2655C31.8909 9.79341 31.5957 10.5091 31.5957 11.2553V12.6622H29.4947V2.81378C29.4947 2.06761 29.1995 1.35187 28.6743 0.823991C28.1487 0.296397 27.4361 -6.10352e-05 26.6933 -6.10352e-05H3.58157C2.83869 -6.10352e-05 2.12611 0.296397 1.60056 0.823991C1.0753 1.3519 0.780148 2.06763 0.780148 2.81378V4.22069C0.780148 4.40724 0.853936 4.58624 0.985252 4.71814C1.11657 4.85004 1.29478 4.92415 1.4805 4.92415H3.58157V21.1037H2.10114C1.41203 21.1037 0.766701 21.4432 0.374343 22.0119C-0.0183521 22.5807 -0.108086 23.3067 0.133596 23.9549L5.72672 38.9373ZM32.2962 14.0694C32.4819 14.0694 32.6601 13.9952 32.7914 13.8634C32.9227 13.7315 32.9965 13.5524 32.9965 13.3659V11.2555C32.9965 10.8824 33.1441 10.5244 33.4067 10.2606C33.6694 9.99684 34.0258 9.84861 34.3972 9.84861H37.1986C37.5701 9.84861 37.9265 9.99684 38.1891 10.2606C38.4518 10.5244 38.5994 10.8824 38.5994 11.2555V34.8106L33.9933 22.4739C33.8419 22.0719 33.573 21.7258 33.2216 21.4812C32.8705 21.2365 32.4534 21.1046 32.0257 21.1034H29.4948V14.0688L32.2962 14.0694ZM2.18092 2.81402C2.18092 2.44093 2.3285 2.08292 2.59113 1.81912C2.85376 1.55533 3.2102 1.4071 3.58163 1.4071H24.2681C24.0211 1.83451 23.8913 2.31999 23.892 2.81402V3.51747H2.18099L2.18092 2.81402ZM4.98234 4.92439H24.5923C24.778 4.92439 24.9562 4.85028 25.0875 4.71838C25.2188 4.58648 25.2926 4.40748 25.2926 4.22093V2.81402C25.2926 2.31123 25.5596 1.84678 25.993 1.59554C26.4263 1.34431 26.9603 1.34431 27.3937 1.59554C27.827 1.84678 28.094 2.31125 28.094 2.81402V21.104H4.98234V4.92439ZM1.52531 22.8132C1.65538 22.6225 1.87111 22.5092 2.10123 22.5107H32.026C32.318 22.5107 32.5791 22.6929 32.6816 22.9674L38.2894 37.9868H6.86871L1.44597 23.461C1.36374 23.2452 1.39375 23.0025 1.52569 22.8131L1.52531 22.8132Z" fill="white"/>
<path d="M36.3638 10.909H37.5759V13.3333H36.3638V10.909Z" fill="white"/>
<path d="M10.3032 8.48479H11.5153V10.303H10.3032V8.48479Z" fill="white"/>
</svg>
