<svg width="45" height="34" viewBox="0 0 45 34" fill="none" xmlns="http://www.w3.org/2000/svg">
<path fill-rule="evenodd" clip-rule="evenodd" d="M6.15487 4.26822L5.86539 5.53597C5.32026 7.92398 4.6688 11.3287 4.6688 13.8018C4.6688 16.1548 5.25926 19.3579 5.78976 21.7327L6.14097 23.3043L4.69117 23.9666C4.44424 24.0793 4.29218 24.3192 4.29218 24.5787C4.29218 24.9338 4.58374 25.2525 4.98169 25.2525C5.28547 25.2525 5.53588 25.0625 5.6304 24.8096L6.18111 23.3382L7.71948 23.5551C10.1232 23.8934 13.6782 24.3482 17.1444 24.6258V25.1539L15.0588 26.4216C12.1804 26.145 9.41428 25.7855 7.45145 25.5089C7.07618 26.5119 6.11218 27.2255 4.98184 27.2255C3.52543 27.2255 2.34482 26.0405 2.34482 24.5787C2.34482 23.5073 2.97888 22.5848 3.89051 22.1684C3.35759 19.7831 2.72178 16.3934 2.72178 13.8018C2.72178 11.0828 3.42175 7.48526 3.96828 5.09127C3.01508 4.69263 2.34473 3.74816 2.34473 2.64711C2.34473 1.18507 3.52534 0 4.98175 0C6.24432 0 7.29931 0.890408 7.55805 2.0797C11.2798 1.5576 17.7624 0.756508 22.4989 0.756508C27.2355 0.756508 33.7184 1.55763 37.4398 2.0797C37.6986 0.890435 38.7536 0 40.0161 0C41.4725 0 42.6531 1.18507 42.6531 2.64711C42.6531 3.74816 41.9828 4.69262 41.0296 5.09127C41.5761 7.48517 42.2765 11.0827 42.2765 13.8018C42.2765 16.3934 41.6403 19.7831 41.1074 22.1684C42.019 22.5848 42.6531 23.5073 42.6531 24.5787C42.6531 26.0404 41.4724 27.2255 40.016 27.2255C38.8857 27.2255 37.9217 26.512 37.5464 25.5089C35.5836 25.7854 32.8175 26.145 29.9388 26.4216L27.8535 25.1539V24.6258C31.3195 24.3482 34.8746 23.8934 37.2784 23.5551L38.8168 23.3382L39.3675 24.8096C39.462 25.0625 39.7124 25.2525 40.0162 25.2525C40.4141 25.2525 40.7057 24.9338 40.7057 24.5787C40.7057 24.3192 40.5536 24.0793 40.3071 23.9666L38.8573 23.3043L39.2081 21.7327C39.7389 19.3579 40.3291 16.1548 40.3291 13.8018C40.3291 11.3287 39.6779 7.92398 39.1325 5.53597L38.8434 4.26822L37.1728 4.03385C33.45 3.51139 27.0872 2.72913 22.4988 2.72913C17.9105 2.72913 11.5481 3.51177 7.82492 4.03385L6.15487 4.26822ZM5.93374 3.7789L5.65647 2.50454C5.59265 2.21193 5.3227 1.97302 4.9816 1.97302C4.58366 1.97302 4.29209 2.29214 4.29209 2.64719C4.29209 2.91365 4.45322 3.15988 4.7113 3.26764L5.93374 3.7789ZM39.0646 3.7789L40.287 3.2676C40.5451 3.15983 40.7062 2.9136 40.7062 2.64714C40.7062 2.29209 40.4146 1.97297 40.0167 1.97297C39.6756 1.97297 39.4056 2.21188 39.3418 2.50415L39.0646 3.7789Z" fill="white"/>
<path d="M19.1409 15.5038C19.7593 15.5038 20.2604 14.9956 20.2604 14.3693C20.2604 13.7429 19.7592 13.2347 19.1409 13.2347C18.5225 13.2347 18.021 13.7429 18.021 14.3693C18.021 14.9956 18.5225 15.5038 19.1409 15.5038Z" fill="white"/>
<path fill-rule="evenodd" clip-rule="evenodd" d="M21.7265 15.8824C21.9807 15.4373 22.1262 14.9205 22.1262 14.3694C22.1262 12.6988 20.7893 11.3446 19.1404 11.3446C17.4911 11.3446 16.1543 12.6988 16.1543 14.3694C16.1543 14.9205 16.3001 15.4374 16.554 15.8824L16.0347 16.1861C16.3493 16.7386 16.802 17.1972 17.3471 17.516C17.8925 17.8348 18.5109 18.0029 19.1404 18.0029C19.77 18.0029 20.3884 17.8348 20.9334 17.516C21.4786 17.1973 21.9313 16.7386 22.2462 16.1861L21.7265 15.8824ZM20.8832 15.3889C21.0544 15.0889 21.1524 14.7409 21.1524 14.3694C21.1524 13.2436 20.2515 12.3309 19.1404 12.3309C18.0289 12.3309 17.128 13.2436 17.128 14.3694C17.128 14.7409 17.226 15.0893 17.3972 15.3889L17.7209 15.1998C17.8646 15.452 18.0718 15.6616 18.3208 15.8074C18.5698 15.9532 18.8527 16.0299 19.1404 16.0299C19.4281 16.0299 19.7106 15.9532 19.9597 15.8074C20.209 15.6616 20.4158 15.452 20.5595 15.1998L20.8832 15.3889Z" fill="white"/>
<path d="M26.9782 14.369C26.9782 14.9954 26.4767 15.5035 25.8583 15.5035C25.2399 15.5035 24.7388 14.9954 24.7388 14.369C24.7388 13.7426 25.24 13.2344 25.8583 13.2344C26.4767 13.2344 26.9782 13.7426 26.9782 14.369Z" fill="white"/>
<path fill-rule="evenodd" clip-rule="evenodd" d="M28.4507 15.8716C28.7015 15.4291 28.8449 14.916 28.8449 14.3692C28.8449 12.6986 27.508 11.3443 25.8587 11.3443C24.2097 11.3443 22.873 12.6986 22.873 14.3692C22.873 14.9244 23.0208 15.4448 23.2782 15.8923L22.7764 16.1859C23.091 16.7384 23.5437 17.197 24.0891 17.5158C24.6342 17.8346 25.2526 18.0027 25.8821 18.0027C26.5117 18.0027 27.1301 17.8346 27.6751 17.5158C28.2203 17.1971 28.673 16.7384 28.9879 16.1859L28.4507 15.8716ZM26.7017 15.8071C26.9507 15.6613 27.1575 15.4517 27.3016 15.1996L27.6074 15.3785C27.7752 15.081 27.8711 14.7364 27.8711 14.3691C27.8711 13.2433 26.9702 12.3306 25.8587 12.3306C24.7476 12.3306 23.8467 13.2433 23.8467 14.3691C23.8467 14.7447 23.9468 15.0966 24.1219 15.3987L24.4626 15.1995C24.6066 15.4517 24.8135 15.6613 25.0625 15.8071C25.3119 15.9528 25.5944 16.0296 25.8821 16.0296C26.1698 16.0296 26.4523 15.9529 26.7017 15.8071L26.7017 15.8071Z" fill="white"/>
<path d="M19.5143 20.4189C19.6618 21.1433 19.6615 21.1433 19.6615 21.1433L19.6653 21.1426L19.6793 21.1398C19.6918 21.137 19.7106 21.1335 19.7354 21.1283C19.7849 21.1185 19.8578 21.1042 19.9489 21.0871C20.1316 21.0526 20.3876 21.0066 20.6785 20.9609C21.2714 20.8674 21.9713 20.7806 22.5001 20.7806C23.0284 20.7806 23.7288 20.8674 24.3216 20.9609C24.6125 21.0066 24.8685 21.0526 25.0513 21.0871C25.1423 21.1042 25.2152 21.1185 25.2647 21.1283L25.2999 21.1356L25.3383 21.1433L25.4858 20.4189L25.6135 19.7908L25.6334 19.6942L25.6267 19.6928L25.6096 19.6893L25.5469 19.6767C25.4928 19.6659 25.415 19.6506 25.3181 19.6324C25.1249 19.5958 24.8546 19.5473 24.5463 19.4988C23.9397 19.4029 23.147 19.3007 22.5 19.3007C21.8527 19.3007 21.06 19.4029 20.4538 19.4988C20.1455 19.5473 19.8752 19.5958 19.6816 19.6324C19.585 19.6506 19.5073 19.6659 19.4532 19.6767C19.426 19.682 19.4047 19.6865 19.3904 19.6893L19.3733 19.6928L19.3667 19.6942L19.5142 20.4189L19.5143 20.4189Z" fill="white"/>
<path fill-rule="evenodd" clip-rule="evenodd" d="M13.0945 28.4197C12.217 28.8522 11.5362 29.6051 11.1864 30.5234C10.0623 30.6061 8.96924 30.6929 7.9355 30.7798C5.67794 30.9695 3.6952 31.1589 2.27638 31.3012C1.56699 31.3723 0.998541 31.4316 0.607207 31.4731C0.411549 31.4937 0.259836 31.5101 0.157293 31.5212L1.48797e-08 31.5383C1.48797e-08 31.5383 -0.000348608 31.5383 0.105677 32.519C0.211703 33.4994 0.212051 33.4994 0.212051 33.4994L0.364808 33.4826C0.465949 33.4718 0.615921 33.4558 0.809838 33.4348C1.19802 33.3937 1.76304 33.3351 2.46821 33.2643C3.87899 33.1227 5.85129 32.9344 8.09662 32.7457C12.5943 32.368 18.1599 31.993 22.5 31.993C26.8401 31.993 32.4052 32.368 36.9034 32.7457C39.1487 32.9344 41.121 33.1227 42.5318 33.2643C43.237 33.3351 43.802 33.3937 44.1902 33.4348C44.3841 33.4558 44.5341 33.4718 44.6352 33.4826L44.7879 33.4994C44.7879 33.4994 44.7883 33.4994 44.8943 32.519C45.0003 31.5383 45 31.5383 45 31.5383L44.8427 31.5212C44.7402 31.5101 44.5885 31.4937 44.3928 31.4731C44.0015 31.4316 43.433 31.3723 42.7236 31.3012C41.3048 31.1589 39.3221 30.9695 37.0645 30.7798C36.0311 30.6929 34.9391 30.6061 33.8157 30.5238C33.477 29.6062 32.8025 28.8528 31.9281 28.4232L27.4827 26.2381C26.9191 25.9608 26.5927 25.3505 26.6715 24.721L26.773 23.9094C29.777 22.3389 31.8308 19.1641 31.8308 15.5034C31.8308 10.2823 27.6536 6.05 22.5006 6.05C17.3475 6.05 13.1694 10.2823 13.1694 15.5034C13.1694 19.1568 15.2153 22.3264 18.2095 23.9L18.3172 24.7182C18.4002 25.3506 18.0745 25.9655 17.5084 26.2445L13.0945 28.4197ZM22.4997 22.9838C18.4219 22.9838 15.1163 19.6345 15.1163 15.5034C15.1163 11.372 18.4219 8.02308 22.4997 8.02308C26.5775 8.02308 29.8831 11.372 29.8831 15.5034C29.8831 19.6346 26.5775 22.9838 22.4997 22.9838ZM22.4997 24.9568C21.731 24.9568 20.9839 24.8626 20.269 24.6847C20.3611 26.078 19.6123 27.401 18.3595 28.0186L13.9465 30.1935C13.8534 30.2396 13.7648 30.2926 13.6814 30.3522C16.7189 30.159 19.8291 30.0202 22.4997 30.0202C25.1758 30.0202 28.2935 30.1597 31.3368 30.3536C31.2552 30.295 31.1687 30.243 31.0777 30.198L26.6323 28.013C25.3812 27.3981 24.6311 26.0794 24.7189 24.6875C24.0078 24.8633 23.2646 24.9567 22.4998 24.9567L22.4997 24.9568Z" fill="white"/>
<path d="M11.8752 17.5002L7.95605 19.0125L8.30273 19.9346L12.2219 18.4221L11.8752 17.5002Z" fill="white"/>
<path d="M7.43241 13.5002L11.1646 13.8783L11.068 14.8601L7.33545 14.482L7.43241 13.5002Z" fill="white"/>
<path d="M12.2669 9.76904L8.53473 7.87835L8.09912 8.76038L11.8317 10.6511L12.2669 9.76904Z" fill="white"/>
<path d="M35.4477 7.98156L32.4616 9.87225L31.9458 9.0359L34.9316 7.14521L35.4477 7.98156Z" fill="white"/>
<path d="M32.7329 18.9698L36.4651 20.8605L36.9007 19.9781L33.1682 18.0874L32.7329 18.9698Z" fill="white"/>
<path d="M37.485 15.2904H33.5903V14.3041H37.485V15.2904Z" fill="white"/>
</svg>
